%
M48
M72
T01C0.01378
T02C0.03543
T03C0.03740
T04C0.03937
T05C0.04000
T06C0.05906
%
T01
X94498Y197500
X94498Y192500
X94498Y187500
X106732Y179705
X111654Y179705
X116575Y179705
X121496Y179705
X126417Y179705
X131339Y179705
X136260Y179705
X141998Y175000
X137490Y168632
X133799Y168632
X133799Y164941
X137549Y164941
X151998Y165000
X151998Y155000
X169498Y142500
X175748Y142500
X181998Y142500
X188248Y142500
X194498Y142500
X194498Y136250
X188248Y136250
X181998Y136250
X175748Y136250
X169498Y136250
X169498Y130000
X175748Y130000
X181998Y130000
X188248Y130000
X194498Y130000
X194498Y123750
X188248Y123750
X181998Y123750
X175748Y123750
X169498Y123750
X169498Y117500
X175748Y117500
X181998Y117500
X188248Y117500
X194498Y117500
X203248Y111250
X175748Y96250
X191998Y93750
X148248Y95000
X143248Y95000
X138248Y95000
X138248Y90000
X143248Y90000
X148248Y90000
X148248Y85000
X143248Y85000
X138248Y85000
X138248Y80000
X143248Y80000
X148248Y80000
X148248Y75000
X143248Y75000
X138248Y75000
X135748Y66250
X135748Y62500
X135748Y58750
X135748Y55000
X135748Y51250
X135748Y47500
X131998Y45000
X129498Y47500
X146998Y62500
X170748Y68750
X205748Y68750
X220738Y70423
X220748Y65000
X230748Y41250
X234498Y41250
X238248Y41250
X210748Y37500
X300748Y42500
X308248Y45000
X309498Y37500
X305748Y33750
X314498Y63750
X319498Y63750
X324498Y63750
X329498Y63750
X334498Y63750
X370748Y72500
X370748Y77500
X370748Y90000
X370748Y95000
X436998Y82500
X488248Y82500
X311998Y130000
X304498Y130000
X299498Y133750
X294498Y133750
X289498Y133750
X259498Y137500
X246998Y141250
X231998Y142500
X226998Y137500
X238248Y132500
X284498Y120000
X284498Y110000
X284498Y100000
X284498Y90000
X148248Y100000
X143248Y100000
X138248Y100000
X138248Y105000
X143248Y105000
X148248Y105000
X148248Y110000
X143248Y110000
X138248Y110000
X100640Y101516
X95748Y100000
X90748Y100000
X85748Y100000
X85748Y96250
X95748Y96250
X95748Y92500
X100748Y88750
X100748Y85000
X85138Y89518
X84724Y105285
X70748Y106230
X90748Y118770
X39498Y85000
X41998Y68750
X34498Y68750
X49498Y68750
X56998Y68750
X64498Y68750
X64498Y61250
X56998Y61250
X49498Y61250
X41998Y61250
X34498Y61250
X34498Y53750
X41998Y53750
X49498Y53750
X56998Y53750
X64498Y53750
X64498Y46250
X56998Y46250
X49498Y46250
X41998Y46250
X34498Y46250
X85748Y50000
X85748Y53750
X85748Y57500
X85748Y66250
X75748Y22500
X66998Y22500
X58248Y22500
X49498Y22500
X40748Y22500
X31998Y22500
X291998Y147500
X291998Y152500
X289498Y157500
X289498Y162500
X284498Y162500
X270748Y168760
X230748Y176250
X210748Y177500
X231998Y155000
X270748Y185000
X331998Y186250
X336998Y186250
X336998Y191250
X331998Y191250
X331998Y196250
X336998Y196250
X336998Y201250
X331998Y201250
X331998Y181250
X336998Y181250
X336998Y176250
X331998Y176250
X331998Y171250
X336998Y171250
X336998Y166250
X331998Y166250
X106998Y157500
X106998Y153750
X101998Y153750
X101998Y157500
X69744Y167402
X69744Y171093
T02
X236274Y125000
X226274Y125000
X226274Y115000
X236274Y115000
X236274Y105000
X226274Y105000
T03
X213327Y66063
T04
X40620Y171250
X59911Y171250
X49675Y160226
T05
X69748Y205000
X79748Y205000
X89748Y205000
X99748Y205000
X109748Y205000
X119748Y205000
X129748Y205000
X139748Y205000
X155748Y205000
X165748Y205000
X175748Y205000
X185748Y205000
X195748Y205000
X205748Y205000
X215748Y205000
X225748Y205000
X245748Y205000
X255748Y205000
X265748Y205000
X275748Y205000
X285748Y205000
X295748Y205000
X305748Y205000
X315748Y205000
X345748Y205000
X355748Y205000
X355748Y195000
X345748Y195000
X345748Y185000
X355748Y185000
X355748Y175000
X345748Y175000
X345748Y165000
X355748Y165000
X355748Y155000
X345748Y155000
X345748Y145000
X355748Y145000
X355748Y135000
X345748Y135000
X345748Y125000
X355748Y125000
X355748Y115000
X345748Y115000
X345748Y105000
X355748Y105000
X355748Y95000
X345748Y95000
X345748Y85000
X355748Y85000
X355748Y75000
X345748Y75000
X345748Y65000
X355748Y65000
X355748Y55000
X345748Y55000
X345748Y45000
X355748Y45000
X355748Y35000
X345748Y35000
X335748Y15000
X325748Y15000
X315748Y15000
X305748Y15000
X295748Y15000
X285748Y15000
X275748Y15000
X265748Y15000
X245748Y15000
X235748Y15000
X225748Y15000
X215748Y15000
X205748Y15000
X195748Y15000
X185748Y15000
X175748Y15000
X155748Y15000
X145748Y15000
X135748Y15000
X125748Y15000
X115748Y15000
X105748Y15000
T06
X40748Y135000
X40748Y115000
M30
