G75*
%MOIN*%
%OFA0B0*%
%FSLAX26Y26*%
%IPPOS*%
%LPD*%
%AMOC8*
5,1,8,0,0,1.08239X$1,22.5*
%
%ADD10C,0.000000*%
%ADD11R,0.070866X0.062992*%
%ADD12R,0.051181X0.059055*%
%ADD13R,0.062992X0.086614*%
%ADD14R,0.059055X0.051181*%
%ADD15R,0.059055X0.031496*%
%ADD16R,0.031496X0.059055*%
%ADD17R,0.039000X0.012000*%
%ADD18R,0.062992X0.051181*%
%ADD19R,0.019685X0.031496*%
%ADD20C,0.005000*%
%ADD21R,0.048000X0.021000*%
%ADD22R,0.062992X0.070866*%
%ADD23R,0.024803X0.032677*%
%ADD24R,0.094488X0.094488*%
%ADD25R,0.070984X0.062992*%
%ADD26C,0.088583*%
%ADD27R,0.023622X0.015748*%
%ADD28R,0.023622X0.023622*%
%ADD29R,0.047244X0.021654*%
%ADD30R,0.078740X0.027559*%
%ADD31R,0.027559X0.078740*%
%ADD32R,0.035433X0.031496*%
%ADD33C,0.064000*%
%ADD34R,0.079000X0.043000*%
%ADD35C,0.059055*%
%ADD36R,0.042000X0.014000*%
%ADD37R,0.070866X0.070866*%
%ADD38C,0.003937*%
%ADD39R,0.027559X0.043307*%
%ADD40R,0.043307X0.027559*%
%ADD41R,0.090551X0.059055*%
%ADD42R,0.047244X0.047244*%
%ADD43R,0.047244X0.019685*%
%ADD44R,0.031496X0.013780*%
%ADD45R,0.078740X0.023622*%
%ADD46R,0.023622X0.078740*%
%ADD47R,0.086614X0.041339*%
%ADD48R,0.039370X0.039370*%
%ADD49R,0.043307X0.039370*%
%ADD50R,0.050000X0.022000*%
%ADD51R,0.086614X0.023622*%
%ADD52C,0.061024*%
%ADD53R,0.048000X0.020000*%
%ADD54C,0.074000*%
%ADD55OC8,0.074000*%
D10*
X00207480Y00100000D02*
X00207480Y02100000D01*
X00257480Y02150000D01*
X04007480Y02150000D01*
X04107480Y02050000D01*
X04107480Y01650000D01*
X04207480Y01550000D01*
X06107480Y01550000D01*
X06169980Y01487500D01*
X06169980Y00262500D01*
X06107480Y00200000D01*
X04207480Y00200000D01*
X04107480Y00100000D01*
X04107480Y00050000D01*
X00257480Y00050000D01*
X00207480Y00100000D01*
X02619980Y01450000D02*
X02644980Y01425000D01*
X02682480Y01425000D01*
X02682480Y01450000D01*
X02657480Y01450000D01*
X02644980Y01462500D01*
X02644980Y01737500D01*
X02657480Y01750000D01*
X02682480Y01750000D01*
X02682480Y01775000D01*
X02644980Y01775000D01*
X02619980Y01750000D01*
X02619980Y01450000D01*
X02807480Y01450000D02*
X02807480Y01425000D01*
X02844980Y01425000D01*
X02869980Y01450000D01*
X02869980Y01750000D01*
X02844980Y01775000D01*
X02807480Y01775000D01*
X02807480Y01750000D01*
X02832480Y01750000D01*
X02844980Y01737500D01*
X02844980Y01462500D01*
X02832480Y01450000D01*
X02807480Y01450000D01*
D11*
X01269980Y01844882D03*
X01169980Y01844882D03*
X01069980Y01844882D03*
X01069980Y01742618D03*
X01169980Y01742618D03*
X01169980Y01632382D03*
X01069980Y01632382D03*
X01069980Y01955118D03*
X01169980Y01955118D03*
X01269980Y01955118D03*
D12*
X01482579Y01750000D03*
X01557382Y01750000D03*
X01457382Y01550000D03*
X01382579Y01550000D03*
X00995079Y01250000D03*
X00920276Y01250000D03*
X01083169Y01074803D03*
X01157972Y01074803D03*
X02057579Y00887500D03*
X02132382Y00887500D03*
X02232579Y00887500D03*
X02307382Y00887500D03*
X02407579Y00887500D03*
X02482382Y00887500D03*
X02582579Y00887500D03*
X02657382Y00887500D03*
X02757579Y00887500D03*
X02832382Y00887500D03*
X02832382Y00812500D03*
X02757579Y00812500D03*
X02657382Y00812500D03*
X02582579Y00812500D03*
X02482382Y00812500D03*
X02407579Y00812500D03*
X02307382Y00812500D03*
X02232579Y00812500D03*
X02132382Y00812500D03*
X02057579Y00812500D03*
X02232579Y00737500D03*
X02307382Y00737500D03*
X02407579Y00737500D03*
X02482382Y00737500D03*
X02307382Y00662500D03*
X02232579Y00662500D03*
X02757579Y00550000D03*
X02832382Y00550000D03*
X02957579Y00537500D03*
X03032382Y00537500D03*
X03032382Y00450000D03*
X02957579Y00450000D03*
X02832382Y00462500D03*
X02757579Y00462500D03*
X02957579Y00362500D03*
X03032382Y00362500D03*
X03032382Y00275000D03*
X02957579Y00275000D03*
X03457579Y00500000D03*
X03532382Y00500000D03*
X03620079Y00437500D03*
X03694882Y00437500D03*
X03532382Y00587500D03*
X03457579Y00587500D03*
X03294882Y00700000D03*
X03220079Y00700000D03*
X03220079Y00787500D03*
X03294882Y00787500D03*
X03057382Y00900000D03*
X02982579Y00900000D03*
X02982579Y01000000D03*
X03057382Y01000000D03*
X03057382Y01100000D03*
X02982579Y01100000D03*
X02982579Y01200000D03*
X03057382Y01200000D03*
X02782382Y01500000D03*
X02707579Y01500000D03*
X02307382Y01650000D03*
X02232579Y01650000D03*
X01218996Y00723130D03*
X01144193Y00723130D03*
X01045669Y00725591D03*
X00970866Y00725591D03*
X00970079Y00362500D03*
X01044882Y00362500D03*
X02032579Y00325000D03*
X02107382Y00325000D03*
X02107382Y00412500D03*
X02032579Y00412500D03*
X02957579Y00625000D03*
X03032382Y00625000D03*
X04457579Y00725000D03*
X04532382Y00725000D03*
D13*
X00945965Y01450000D03*
X00693996Y01450000D03*
X00693996Y01800000D03*
X00945965Y01800000D03*
D14*
X01269980Y01737402D03*
X01269980Y01662598D03*
X01369980Y01862598D03*
X01457480Y01862598D03*
X01544980Y01862598D03*
X01544980Y01937402D03*
X01457480Y01937402D03*
X01369980Y01937402D03*
X02269980Y01887402D03*
X02269980Y01812598D03*
X02619980Y01812598D03*
X02707480Y01812598D03*
X02707480Y01887402D03*
X02619980Y01887402D03*
X03094980Y01850098D03*
X03094980Y01924902D03*
X03394980Y01924902D03*
X03394980Y01850098D03*
X03394980Y01762402D03*
X03394980Y01687598D03*
X03094980Y01687598D03*
X03094980Y01762402D03*
X03119980Y01562402D03*
X03119980Y01487598D03*
X03119980Y01374902D03*
X03119980Y01300098D03*
X02594980Y01112402D03*
X02594980Y01037598D03*
X03794980Y00587402D03*
X03794980Y00512598D03*
X03419980Y00337402D03*
X03419980Y00262598D03*
X02669980Y00337598D03*
X02669980Y00412402D03*
X04282480Y00775098D03*
X04282480Y00849902D03*
X00807480Y01112598D03*
X00707480Y01112598D03*
X00707480Y01187402D03*
X00807480Y01187402D03*
X00794980Y00969980D03*
X00794980Y00895177D03*
X00669980Y00174902D03*
X00494980Y00174902D03*
X00319980Y00174902D03*
X00319980Y00100098D03*
X00494980Y00100098D03*
X00669980Y00100098D03*
D15*
X00770374Y00460236D03*
X00770374Y00507480D03*
X00770374Y00554724D03*
X00770374Y00601969D03*
X00770374Y00649213D03*
X00770374Y00696457D03*
D16*
X00681791Y00794882D03*
X00634547Y00794882D03*
X00587303Y00794882D03*
X00540059Y00794882D03*
X00492815Y00794882D03*
X00445571Y00794882D03*
X00398327Y00794882D03*
X00351083Y00794882D03*
X00351083Y00361811D03*
X00398327Y00361811D03*
X00445571Y00361811D03*
X00492815Y00361811D03*
X00540059Y00361811D03*
X00587303Y00361811D03*
X00634547Y00361811D03*
X00681791Y00361811D03*
D17*
X00992606Y00422343D03*
X00992606Y00447933D03*
X00992606Y00473524D03*
X00992606Y00499114D03*
X00992606Y00524705D03*
X00992606Y00550295D03*
X00992606Y00575886D03*
X00992606Y00601476D03*
X00992606Y00627067D03*
X00992606Y00652657D03*
X01222354Y00652657D03*
X01222354Y00627067D03*
X01222354Y00601476D03*
X01222354Y00575886D03*
X01222354Y00550295D03*
X01222354Y00524705D03*
X01222354Y00499114D03*
X01222354Y00473524D03*
X01222354Y00447933D03*
X01222354Y00422343D03*
D18*
X00407480Y00910630D03*
X00319980Y00910630D03*
X00319980Y00989370D03*
X00407480Y00989370D03*
X04719980Y00914370D03*
X04719980Y00835630D03*
D19*
X02784350Y01590945D03*
X02744980Y01590945D03*
X02705610Y01590945D03*
X02705610Y01709055D03*
X02744980Y01709055D03*
X02784350Y01709055D03*
D20*
X02778445Y01682480D02*
X02692815Y01682480D01*
X02692815Y01619488D01*
X02796161Y01619488D01*
X02796161Y01664764D01*
X02778445Y01682480D01*
X02781406Y01679519D02*
X02692815Y01679519D01*
X02692815Y01674520D02*
X02786405Y01674520D01*
X02791404Y01669522D02*
X02692815Y01669522D01*
X02692815Y01664523D02*
X02796161Y01664523D01*
X02796161Y01659525D02*
X02692815Y01659525D01*
X02692815Y01654526D02*
X02796161Y01654526D01*
X02796161Y01649528D02*
X02692815Y01649528D01*
X02692815Y01644529D02*
X02796161Y01644529D01*
X02796161Y01639531D02*
X02692815Y01639531D01*
X02692815Y01634532D02*
X02796161Y01634532D01*
X02796161Y01629533D02*
X02692815Y01629533D01*
X02692815Y01624535D02*
X02796161Y01624535D01*
X02796161Y01619536D02*
X02692815Y01619536D01*
D21*
X01003480Y01137000D03*
X01003480Y01100000D03*
X01003480Y01063000D03*
X00911480Y01063000D03*
X00911480Y01100000D03*
X00911480Y01137000D03*
D22*
X01077559Y00975000D03*
X01187795Y00975000D03*
X01187795Y00875000D03*
X01077559Y00875000D03*
D23*
X01002756Y00950000D03*
X00912205Y00950000D03*
D24*
X01108366Y01212500D03*
X01281594Y01212500D03*
D25*
X00705906Y00993681D03*
X00605906Y00993681D03*
X00605906Y00881713D03*
X00705906Y00881713D03*
D26*
X00407480Y01150000D03*
X00407480Y01350000D03*
D27*
X03629921Y00589370D03*
X03685039Y00589370D03*
X03685039Y00510630D03*
X03629921Y00510630D03*
D28*
X03629921Y00550000D03*
X03685039Y00550000D03*
D29*
X03708665Y00374902D03*
X03708665Y00337500D03*
X03708665Y00300098D03*
X03606295Y00300098D03*
X03606295Y00374902D03*
D30*
X03353937Y00400000D03*
X03353937Y00450000D03*
X03353937Y00500000D03*
X03161024Y00500000D03*
X03161024Y00450000D03*
X03161024Y00400000D03*
X02505807Y00425000D03*
X02505807Y00325000D03*
X02234154Y00325000D03*
X02234154Y00425000D03*
D31*
X02319980Y00471457D03*
X02369980Y00471457D03*
X02419980Y00471457D03*
X02419980Y00278543D03*
X02369980Y00278543D03*
X02319980Y00278543D03*
X03207480Y00314173D03*
X03307480Y00314173D03*
X03307480Y00585827D03*
X03207480Y00585827D03*
D32*
X03146850Y00700098D03*
X03064173Y00737500D03*
X03146850Y00774902D03*
X03205610Y01687598D03*
X03288287Y01725000D03*
X03205610Y01762402D03*
X03205610Y01850098D03*
X03288287Y01887500D03*
X03205610Y01924902D03*
D33*
X02812738Y01250000D03*
X02712738Y01250000D03*
X02712738Y01150000D03*
X02812738Y01150000D03*
X02812738Y01050000D03*
X02712738Y01050000D03*
D34*
X03430480Y01050000D03*
X03430480Y00950000D03*
X03430480Y00850000D03*
X03430480Y00750000D03*
X03784480Y00750000D03*
X03784480Y00850000D03*
X03784480Y00950000D03*
X03784480Y01050000D03*
X03784480Y01150000D03*
X03784480Y01250000D03*
X03430480Y01250000D03*
X03430480Y01150000D03*
D35*
X00599114Y01682972D02*
X00599114Y01742028D01*
X00406201Y01742028D02*
X00406201Y01682972D01*
X00467224Y01602264D02*
X00526280Y01602264D01*
D36*
X03510980Y01849500D03*
X03510980Y01874500D03*
X03510980Y01900500D03*
X03510980Y01925500D03*
X03678980Y01925500D03*
X03678980Y01900500D03*
X03678980Y01874500D03*
X03678980Y01849500D03*
D37*
X03659941Y01750000D03*
X03530020Y01750000D03*
D38*
X02535531Y01878543D02*
X02535531Y01912992D01*
X02511909Y01912992D01*
X02511909Y01873622D01*
X02530610Y01873622D01*
X02535531Y01878543D01*
X02535531Y01880022D02*
X02511909Y01880022D01*
X02511909Y01876087D02*
X02533075Y01876087D01*
X02535531Y01883958D02*
X02511909Y01883958D01*
X02511909Y01887893D02*
X02535531Y01887893D01*
X02535531Y01891829D02*
X02511909Y01891829D01*
X02511909Y01895764D02*
X02535531Y01895764D01*
X02535531Y01899700D02*
X02511909Y01899700D01*
X02511909Y01903635D02*
X02535531Y01903635D01*
X02535531Y01907571D02*
X02511909Y01907571D01*
X02511909Y01911506D02*
X02535531Y01911506D01*
D39*
X02492224Y01893307D03*
X02460728Y01893307D03*
X02429232Y01893307D03*
X02397736Y01893307D03*
X02366240Y01893307D03*
X02366240Y01806693D03*
X02397736Y01806693D03*
X02429232Y01806693D03*
X02460728Y01806693D03*
X02492224Y01806693D03*
X02523720Y01806693D03*
D40*
X02523720Y01850000D03*
X02366240Y01850000D03*
D41*
X03463091Y01587500D03*
X03726870Y01587500D03*
X03726870Y01425000D03*
X03463091Y01425000D03*
D42*
X03223819Y01200000D03*
X03141142Y01200000D03*
X03141142Y01100000D03*
X03223819Y01100000D03*
X03223819Y01000000D03*
X03141142Y01000000D03*
X03141142Y00900000D03*
X03223819Y00900000D03*
X00757480Y00178839D03*
X00582480Y00178839D03*
X00407480Y00178839D03*
X00407480Y00096161D03*
X00582480Y00096161D03*
X00757480Y00096161D03*
D43*
X03222736Y01376181D03*
X03317224Y01376181D03*
X03317224Y01425394D03*
X03222736Y01425394D03*
X03222736Y01474606D03*
X03317224Y01474606D03*
X03317224Y01523819D03*
X03222736Y01523819D03*
D44*
X02478445Y00650591D03*
X02411516Y00650591D03*
X02411516Y00625000D03*
X02411516Y00599409D03*
X02478445Y00599409D03*
X02478445Y00625000D03*
D45*
X02516043Y01181890D03*
X02516043Y01229134D03*
X02516043Y01276378D03*
X02516043Y01323622D03*
X02516043Y01370866D03*
X02516043Y01418110D03*
X02023917Y01418110D03*
X02023917Y01370866D03*
X02023917Y01323622D03*
X02023917Y01276378D03*
X02023917Y01229134D03*
X02023917Y01181890D03*
D46*
X02128248Y01053937D03*
X02175492Y01053937D03*
X02222736Y01053937D03*
X02317224Y01053937D03*
X02364469Y01053937D03*
X02411713Y01053937D03*
X02411713Y01546063D03*
X02364469Y01546063D03*
X02317224Y01546063D03*
X02222736Y01546063D03*
X02175492Y01546063D03*
X02128248Y01546063D03*
D47*
X01869980Y01434055D03*
X01869980Y01315945D03*
D48*
X01810925Y01375000D03*
X01929035Y01375000D03*
D49*
X02061516Y00962500D03*
X02128445Y00962500D03*
D50*
X01570980Y01613000D03*
X01570980Y01650000D03*
X01570980Y01687000D03*
X01468980Y01687000D03*
X01468980Y01650000D03*
X01468980Y01613000D03*
D51*
X04392618Y00950000D03*
X04392618Y00900000D03*
X04392618Y00850000D03*
X04392618Y00800000D03*
X04597343Y00800000D03*
X04597343Y00850000D03*
X04597343Y00900000D03*
X04597343Y00950000D03*
D52*
X02583268Y00660630D03*
D53*
X02746980Y00650500D03*
X02842980Y00650500D03*
X02842980Y00687500D03*
X02842980Y00724500D03*
X02746980Y00724500D03*
D54*
X03907480Y00350000D03*
X04007480Y00350000D03*
X03807480Y00150000D03*
X03707480Y00150000D03*
X03607480Y00150000D03*
X03507480Y00150000D03*
X03407480Y00150000D03*
X03307480Y00150000D03*
X03207480Y00150000D03*
X03107480Y00150000D03*
X02907480Y00150000D03*
X02807480Y00150000D03*
X02707480Y00150000D03*
X02607480Y00150000D03*
X02507480Y00150000D03*
X02407480Y00150000D03*
X02307480Y00150000D03*
X02207480Y00150000D03*
X02007480Y00150000D03*
X01907480Y00150000D03*
X01807480Y00150000D03*
X01707480Y00150000D03*
X01607480Y00150000D03*
X01507480Y00150000D03*
X01407480Y00150000D03*
X01307480Y00150000D03*
X01347480Y02050000D03*
X01247480Y02050000D03*
X01147480Y02050000D03*
X01047480Y02050000D03*
X00947480Y02050000D03*
X01447480Y02050000D03*
X01547480Y02050000D03*
X01647480Y02050000D03*
X01747480Y02050000D03*
X01847480Y02050000D03*
X02007480Y02050000D03*
X02107480Y02050000D03*
X02207480Y02050000D03*
X02307480Y02050000D03*
X02407480Y02050000D03*
X02507480Y02050000D03*
X02607480Y02050000D03*
X02707480Y02050000D03*
X02907480Y02050000D03*
X03007480Y02050000D03*
X03107480Y02050000D03*
X03207480Y02050000D03*
X03307480Y02050000D03*
X03407480Y02050000D03*
X03507480Y02050000D03*
X03607480Y02050000D03*
X03907480Y02050000D03*
X04007480Y02050000D03*
D55*
X04007480Y01950000D03*
X03907480Y01950000D03*
X03907480Y01850000D03*
X04007480Y01850000D03*
X04007480Y01750000D03*
X03907480Y01750000D03*
X03907480Y01650000D03*
X04007480Y01650000D03*
X04007480Y01550000D03*
X03907480Y01550000D03*
X03907480Y01450000D03*
X04007480Y01450000D03*
X04007480Y01350000D03*
X03907480Y01350000D03*
X03907480Y01250000D03*
X04007480Y01250000D03*
X04007480Y01150000D03*
X03907480Y01150000D03*
X03907480Y01050000D03*
X04007480Y01050000D03*
X04007480Y00950000D03*
X03907480Y00950000D03*
X03907480Y00850000D03*
X04007480Y00850000D03*
X04007480Y00750000D03*
X03907480Y00750000D03*
X03907480Y00650000D03*
X04007480Y00650000D03*
X04007480Y00550000D03*
X03907480Y00550000D03*
X03907480Y00450000D03*
X04007480Y00450000D03*
M02*
