%
M48
M72
T01C0.01378
T02C0.03543
T03C0.03740
T04C0.03937
T05C0.04000
T06C0.05906
%
T01
X94498Y197500
X94498Y192500
X94498Y187500
X106732Y179705
X111654Y179705
X116575Y179705
X121496Y179705
X126417Y179705
X131339Y179705
X136260Y179705
X141998Y175000
X137490Y168632
X133799Y168632
X133799Y164941
X137549Y164941
X151998Y165000
X151998Y155000
X106998Y153750
X106998Y157500
X101998Y157500
X101998Y153750
X69744Y167402
X69744Y171093
X214498Y142500
X220748Y142500
X226998Y142500
X233248Y142500
X239498Y142500
X239498Y136250
X233248Y136250
X226998Y136250
X220748Y136250
X214498Y136250
X214498Y130000
X220748Y130000
X226998Y130000
X233248Y130000
X239498Y130000
X239498Y123750
X233248Y123750
X226998Y123750
X220748Y123750
X214498Y123750
X214498Y117500
X220748Y117500
X226998Y117500
X233248Y117500
X239498Y117500
X248248Y111250
X220748Y96250
X236998Y93750
X193248Y95000
X188248Y95000
X183248Y95000
X183248Y90000
X188248Y90000
X193248Y90000
X193248Y85000
X188248Y85000
X183248Y85000
X183248Y80000
X188248Y80000
X193248Y80000
X193248Y75000
X188248Y75000
X183248Y75000
X180748Y66250
X180748Y62500
X180748Y58750
X180748Y55000
X180748Y51250
X180748Y47500
X176998Y45000
X174498Y47500
X191998Y62500
X215748Y68750
X250748Y68750
X265738Y70423
X265748Y65000
X275748Y41250
X279498Y41250
X283248Y41250
X255748Y37500
X345748Y42500
X353248Y45000
X354498Y37500
X350748Y33750
X359498Y63750
X364498Y63750
X369498Y63750
X374498Y63750
X379498Y63750
X415748Y72500
X415748Y77500
X415748Y90000
X415748Y95000
X481998Y82500
X533248Y82500
X356998Y130000
X349498Y130000
X344498Y133750
X339498Y133750
X334498Y133750
X304498Y137500
X291998Y141250
X276998Y142500
X271998Y137500
X283248Y132500
X329498Y120000
X329498Y110000
X329498Y100000
X329498Y90000
X193248Y100000
X188248Y100000
X183248Y100000
X183248Y105000
X188248Y105000
X193248Y105000
X193248Y110000
X188248Y110000
X183248Y110000
X100640Y101516
X95748Y100000
X90748Y100000
X85748Y100000
X85748Y96250
X95748Y96250
X95748Y92500
X100748Y88750
X100748Y85000
X85138Y89518
X84724Y105285
X70748Y106230
X90748Y118770
X39498Y85000
X41998Y68750
X34498Y68750
X34498Y61250
X41998Y61250
X49498Y61250
X56998Y61250
X64498Y61250
X64498Y68750
X56998Y68750
X49498Y68750
X85748Y66250
X85748Y57500
X85748Y53750
X85748Y50000
X64498Y46250
X56998Y46250
X49498Y46250
X41998Y46250
X34498Y46250
X34498Y53750
X41998Y53750
X49498Y53750
X56998Y53750
X64498Y53750
X66998Y22500
X58248Y22500
X49498Y22500
X40748Y22500
X31998Y22500
X75748Y22500
X336998Y147500
X336998Y152500
X334498Y157500
X334498Y162500
X329498Y162500
X315748Y168760
X275748Y176250
X255748Y177500
X276998Y155000
X315748Y185000
X376998Y186250
X381998Y186250
X381998Y191250
X376998Y191250
X376998Y196250
X381998Y196250
X381998Y201250
X376998Y201250
X376998Y181250
X381998Y181250
X381998Y176250
X376998Y176250
X376998Y171250
X381998Y171250
X381998Y166250
X376998Y166250
T02
X281274Y125000
X271274Y125000
X271274Y115000
X281274Y115000
X281274Y105000
X271274Y105000
T03
X258327Y66063
T04
X40620Y171250
X59911Y171250
X49675Y160226
T05
X94748Y205000
X104748Y205000
X114748Y205000
X124748Y205000
X134748Y205000
X144748Y205000
X154748Y205000
X164748Y205000
X174748Y205000
X184748Y205000
X200748Y205000
X210748Y205000
X220748Y205000
X230748Y205000
X240748Y205000
X250748Y205000
X260748Y205000
X270748Y205000
X290748Y205000
X300748Y205000
X310748Y205000
X320748Y205000
X330748Y205000
X340748Y205000
X350748Y205000
X360748Y205000
X390748Y205000
X400748Y205000
X400748Y195000
X390748Y195000
X390748Y185000
X400748Y185000
X400748Y175000
X390748Y175000
X390748Y165000
X400748Y165000
X400748Y155000
X390748Y155000
X390748Y145000
X400748Y145000
X400748Y135000
X390748Y135000
X390748Y125000
X400748Y125000
X400748Y115000
X390748Y115000
X390748Y105000
X400748Y105000
X400748Y95000
X390748Y95000
X390748Y85000
X400748Y85000
X400748Y75000
X390748Y75000
X390748Y65000
X400748Y65000
X400748Y55000
X390748Y55000
X390748Y45000
X400748Y45000
X400748Y35000
X390748Y35000
X380748Y15000
X370748Y15000
X360748Y15000
X350748Y15000
X340748Y15000
X330748Y15000
X320748Y15000
X310748Y15000
X290748Y15000
X280748Y15000
X270748Y15000
X260748Y15000
X250748Y15000
X240748Y15000
X230748Y15000
X220748Y15000
X200748Y15000
X190748Y15000
X180748Y15000
X170748Y15000
X160748Y15000
X150748Y15000
X140748Y15000
X130748Y15000
T06
X40748Y135000
X40748Y115000
M30
